Coordinates
version=1
nRows=54
nColumns=12
inDegrees=yes

Units are S.I. units (second, meters, Newtons, ...)
Angles are in degrees

endheader
time	SC_y	SC_z	SC_x	AC_y	AC_z	AC_x	GH_y	GH_z	GH_yy	EL_x	PS_y
       0.0              -19.16          15.14          61.92          43.22         -17.69         -17.65         -168.5           8.41         -104.4          101.6          104.3
  0.007291              -19.16          15.14          61.92          43.22         -17.69         -17.65         -168.5          8.411         -104.4          101.6          104.3
   0.01458              -19.16          15.14          61.92          43.22         -17.68         -17.65         -168.5          8.411         -104.4          101.6          104.3
   0.02187              -19.16          15.14          61.91          43.22         -17.68         -17.64         -168.5          8.411         -104.4          101.6          104.3
   0.02916              -19.16          15.14          61.91          43.22         -17.68         -17.64         -168.5          8.411         -104.5          101.6          104.3
   0.03645              -19.15          15.14           61.9          43.22         -17.68         -17.64         -168.5          8.411         -104.5          101.7          104.3
   0.04374              -19.15          15.14           61.9          43.22         -17.67         -17.63         -168.5          8.411         -104.5          101.7          104.3
   0.05104              -19.15          15.14          61.89          43.22         -17.67         -17.63         -168.5          8.411         -104.5          101.7          104.2
   0.05833              -19.15          15.14          61.89          43.22         -17.67         -17.63         -168.4          8.411         -104.5          101.7          104.2
   0.06562              -19.15          15.13          61.88          43.23         -17.66         -17.62         -168.4          8.412         -104.5          101.7          104.2
   0.07291              -19.15          15.13          61.87          43.23         -17.66         -17.62         -168.4          8.412         -104.5          101.7          104.2
    0.0802              -19.14          15.13          61.87          43.23         -17.66         -17.61         -168.4          8.412         -104.6          101.7          104.2
   0.08749              -19.14          15.13          61.86          43.23         -17.65         -17.61         -168.4          8.412         -104.6          101.7          104.2
   0.09478              -19.14          15.13          61.85          43.23         -17.65          -17.6         -168.4          8.412         -104.6          101.7          104.1
    0.1021              -19.14          15.13          61.84          43.23         -17.64          -17.6         -168.4          8.412         -104.6          101.7          104.1
    0.1094              -19.13          15.12          61.83          43.23         -17.64         -17.59         -168.3          8.413         -104.6          101.7          104.1
    0.1167              -19.13          15.12          61.82          43.23         -17.63         -17.58         -168.3          8.413         -104.7          101.7          104.1
    0.1239              -19.12          15.12          61.81          43.24         -17.63         -17.58         -168.3          8.413         -104.7          101.8          104.0
    0.1312              -19.12          15.11           61.8          43.24         -17.62         -17.57         -168.3          8.413         -104.7          101.8          104.0
    0.1385              -19.12          15.11          61.78          43.24         -17.61         -17.56         -168.3          8.414         -104.7          101.8          104.0
    0.1458              -19.11          15.11          61.77          43.24          -17.6         -17.55         -168.2          8.414         -104.8          101.8          103.9
    0.1531              -19.11           15.1          61.75          43.24          -17.6         -17.54         -168.2          8.415         -104.8          101.8          103.9
    0.1604               -19.1           15.1          61.73          43.25         -17.59         -17.53         -168.2          8.415         -104.9          101.8          103.9
    0.1677              -19.09          15.09          61.71          43.25         -17.58         -17.51         -168.1          8.415         -104.9          101.9          103.8
     0.175              -19.09          15.09          61.69          43.25         -17.56          -17.5         -168.1          8.416         -105.0          101.9          103.8
    0.1823              -19.08          15.08          61.67          43.26         -17.55         -17.48         -168.0          8.417         -105.0          101.9          103.7
    0.1896              -19.07          15.08          61.64          43.26         -17.53         -17.46         -168.0          8.417         -105.1          101.9          103.6
    0.1969              -19.06          15.07          61.61          43.26         -17.52         -17.44         -167.9          8.418         -105.2          102.0          103.6
    0.2041              -19.05          15.06          61.57          43.27          -17.5         -17.42         -167.9          8.419         -105.2          102.0          103.5
    0.2114              -19.03          15.05          61.53          43.28         -17.48         -17.39         -167.8           8.42         -105.3          102.1          103.4
    0.2187              -19.02          15.04          61.48          43.28         -17.45         -17.36         -167.7          8.421         -105.4          102.1          103.3
     0.226               -19.0          15.03          61.43          43.29         -17.42         -17.33         -167.6          8.422         -105.6          102.2          103.1
    0.2333              -18.98          15.01          61.37           43.3         -17.39         -17.28         -167.5          8.424         -105.7          102.2          103.0
    0.2406              -18.96           15.0           61.3          43.31         -17.35         -17.24         -167.4          8.425         -105.9          102.3          102.8
    0.2479              -18.93          14.98          61.21          43.32         -17.31         -17.18         -167.2          8.427         -106.1          102.4          102.6
    0.2552               -18.9          14.95          61.11          43.34         -17.25         -17.12         -167.0           8.43         -106.3          102.5          102.4
    0.2625              -18.86          14.92          60.99          43.35         -17.19         -17.04         -166.8          8.432         -106.6          102.6          102.1
    0.2698              -18.82          14.89          60.85          43.37         -17.11         -16.95         -166.6          8.436         -106.9          102.8          101.7
    0.2771              -18.76          14.85          60.68           43.4         -17.02         -16.84         -166.3           8.44         -107.3          103.0          101.3
    0.2843               -18.7           14.8          60.48          43.43         -16.91          -16.7         -165.9          8.445         -107.8          103.2          100.8
    0.2916              -18.61          14.74          60.22          43.46         -16.77         -16.53         -165.4          8.451         -108.4          103.5          100.2
    0.2989              -18.51          14.67           59.9          43.51          -16.6         -16.32         -164.9          8.458         -109.1          103.8          99.45
    0.3062              -18.38          14.57          59.49          43.57         -16.39         -16.05         -164.1          8.468         -110.1          104.3          98.48
    0.3135              -18.22          14.45          58.98          43.64         -16.11         -15.72         -163.2           8.48         -111.2          104.8          97.25
    0.3208              -18.01          14.29          58.32          43.73         -15.76         -15.29         -162.0          8.496         -112.8          105.6          95.68
    0.3281              -17.74          14.09          57.48          43.85         -15.31         -14.73         -160.5          8.516         -114.7          106.5          93.65
    0.3354              -17.39          13.84           56.4          44.01         -14.73         -14.03         -158.5          8.541         -117.2          107.7          91.07
    0.3427              -16.96          13.52          55.05           44.2          -14.0         -13.14         -156.1          8.573         -120.3          109.1          87.82
      0.35              -16.43          13.13           53.4          44.43         -13.12         -12.05         -153.1          8.612         -124.2          110.9          83.86
    0.3572              -15.81          12.68          51.49          44.71         -12.09          -10.8         -149.7          8.658         -128.6          113.0          79.27
    0.3645              -15.15          12.19          49.42           45.0         -10.98         -9.438         -145.9          8.707         -133.4          115.3           74.3
    0.3718              -14.48           11.7          47.35           45.3         -9.871         -8.079         -142.2          8.756         -138.2          117.6          69.33
    0.3791              -13.87          11.24          45.43          45.57         -8.845         -6.823         -138.7          8.801         -142.6          119.6          64.74
    0.3864              -13.34          10.85          43.78          45.81          -7.96         -5.739         -135.7           8.84         -146.4          121.5          60.78
